@startuml "class uml"

skin rose

skinparam class {
    BackgroundColor<<Model>> #FFB2B2
}

skinparam class {
    BackgroundColor<<Controller>> #FFFBD7
}

skinparam class {
    BackgroundColor<<View>> #D9FFB2
}

class FlightController<<Controller>> {
    + flight_list(request)
    + flight_detail(request, pk)
    + create_flight(request)
    + update_flight(request, pk)
    + delete_flight(request, pk)
}

class AirportController<<Controller>> {
    + airport_list(request)
    + airport_detail(request, pk)
    + create_airport(request)
    + update_airport(request, pk)
    + delete_airport(request, pk)
}

class AircraftController<<Controller>> {
    + aircraft_list(request)
    + aircraft_detail(request, pk)
    + create_aircraft(request)
    + update_aircraft(request, pk)
    + delete_aircraft(request, pk)
}

class PassengerController<<Controller>> {
    + passenger_list(request)
    + passenger_detail(request, pk)
    + create_passenger(request)
    + update_passenger(request, pk)
    + delete_passenger(request, pk)
}

class BookingController<<Controller>> {
    + booking_list(request)
    + booking_detail(request, pk)
    + create_booking(request)
    + update_booking(request, pk)
    + delete_booking(request, pk)
    + get_booking_information(request)
}

class FlightAdmin<<View>> {
    form: FlightForm
    list_display: str[]
    search_fields: str[]
    date_hierarchy: str
    list_filter: str[]
    list_per_page: int
    total_passenger()
    avaiable_seat()
    capacity()
    aircraft_code()
    duration_time()
    has_change_permission()
    has_delete_permission()
}

class AircraftAdmin<<View>> {
    list_display: str[]
    search_fields: str[]
    list_filter: str[]
    list_per_page: int
}

class AirportAdmin<<View>> {
    list_display: str[]
    search_fields: str[]
    list_filter: str[]
    list_per_page: int
}

class PassengerAdmin<<View>> {
    list_display: str[]
    search_fields: str[]
    list_per_page: int
}

class BookingAdmin<<View>> {
    form: BookingForm
    filter_horizontal: str[]
    search_fields: str[]
    list_display: str[]
    list_filter: str[]
    get_queryset()
    has_change_permission()
    has_delete_permission()
}


class Flight <<Model>> {
    + id: Integer
    + departure_airport: Airport
    + arrival_airport: Airport
    + departure_time: DateTime
    + arrival_time: DateTime
    + aircraft: Aircraft
    ~ __str__()
}

class Aircraft<<Model>> {
    + model: String
    + capacity: Integer
    + code: String
    ~ __str__()
}

class Airport<<Model>> {
    + code: String
    + city: String
    + name: String
    + latitude: Float
    + longitude: Float
    ~ __str__()
}

class Passenger<<Model>> {
    + name: String
    + date_of_birth: Date
    + sex: Sex
    + email: Email
    + phone: String
    + citizen_identify_id: String
    + relation: Passenger
    ~ __str__()
}

class Booking<<Model>> {
    + flight: Flight
    + passengers: Passenger[]
    + booking_date: DateTime
    + total_fare: Decimal
    ~ __str__()
}

Passenger ..o Passenger: relation
Flight --o Airport: departure_airport
Flight --o Airport: arrival_airport
Flight --o Aircraft
Booking --o Flight
Booking --o Passenger


FlightAdmin <-- FlightController
AirportAdmin <-- AirportController
AircraftAdmin <-- AircraftController
BookingAdmin <-- BookingController
PassengerAdmin <-- PassengerController


FlightAdmin --> Flight
AirportAdmin --> Airport
AircraftAdmin --> Aircraft
BookingAdmin --> Booking
PassengerAdmin --> Passenger



@enduml
